<svg class="animated" id="freepik_stories-software-integration" xmlns="http://www.w3.org/2000/svg" viewBox="0 0 750 500" version="1.1" xmlns:xlink="http://www.w3.org/1999/xlink" xmlns:svgjs="http://svgjs.com/svgjs"><style>svg#freepik_stories-software-integration:not(.animated) .animable {opacity: 0;}svg#freepik_stories-software-integration.animated #freepik--background-simple--inject-2 {animation: 1.5s Infinite  linear wind;animation-delay: 0s;}svg#freepik_stories-software-integration.animated #freepik--Gears--inject-2 {animation: 0.8s 1 forwards linear slideLeft,1.5s Infinite  linear wind;animation-delay: 0s,0.8s;}svg#freepik_stories-software-integration.animated #freepik--Search--inject-2 {animation: 1s 1 forwards cubic-bezier(.36,-0.01,.5,1.38) slideRight,1.5s Infinite  linear wind;animation-delay: 0s,1s;}svg#freepik_stories-software-integration.animated #freepik--Design--inject-2 {animation: 0.7s 1 forwards linear slideRight,1.5s Infinite  linear wind;animation-delay: 0s,0.7s;}            @keyframes wind {                0% {                    transform: rotate( 0deg );                }                25% {                    transform: rotate( 1deg );                }                75% {                    transform: rotate( -1deg );                }            }                    @keyframes slideLeft {                0% {                    opacity: 0;                    transform: translateX(-30px);                }                100% {                    opacity: 1;                    transform: translateX(0);                }            }                    @keyframes slideRight {                0% {                    opacity: 0;                    transform: translateX(30px);                }                100% {                    opacity: 1;                    transform: translateX(0);                }            }        </style><g id="freepik--background-simple--inject-2" class="animable" style="transform-origin: 358.016px 253.761px;"><path d="M696,277.29s10-178-141-227-227-13-275,33-64,76-119,82-106,16-132,83,7,120,57,153,108-2,154,19,75,56,169,60,97-23,145-65S687,417.29,696,277.29Z" style="fill: rgb(119, 255, 192); transform-origin: 358.016px 253.761px;" id="eluz8esh2ej" class="animable"></path><g id="elnkdagau6nsj"><path d="M696,277.29s10-178-141-227-227-13-275,33-64,76-119,82-106,16-132,83,7,120,57,153,108-2,154,19,75,56,169,60,97-23,145-65S687,417.29,696,277.29Z" style="fill: rgb(255, 255, 255); opacity: 0.7; transform-origin: 358.016px 253.761px;" class="animable"></path></g></g><g id="freepik--Plant--inject-2" class="animable" style="transform-origin: 658.455px 355.499px;"><path d="M600.09,292.26c3.73,1.62,12.83,1.42,12.84,1.42s-2-6-2.13-6.32c-2-4.18-8.32-11.08-13.46-10.39a6.15,6.15,0,0,0-4.93,7.7C593.27,288.23,596.92,290.87,600.09,292.26Z" style="fill: rgb(38, 50, 56); transform-origin: 602.56px 285.305px;" id="elrkek6bnaztk" class="animable"></path><path d="M603.24,318.63c3.86.57,12-1.79,12.63-2a108.6,108.6,0,0,0,4.93,13.64c1.11,2.58,2.32,5.16,3.56,7.72-.74-1.09-1.41-2.05-1.52-2.18-3-3.5-10.94-8.49-15.72-6.46a6.14,6.14,0,0,0-2.72,8.72c1.76,3.21,6,4.8,9.41,5.3s10.44-1.37,12.28-1.89c.49,1,1,2,1.46,2.94,2.35,4.69,4.72,9.35,6.9,14,.77,1.64,1.47,3.28,2.17,4.92-.66-1-1.22-1.77-1.32-1.89-3-3.5-10.95-8.49-15.72-6.46a6.14,6.14,0,0,0-2.72,8.72c1.76,3.21,6,4.8,9.41,5.3s9.76-1.19,12-1.8c.67,1.7,1.34,3.41,1.92,5.08.36,1.16.8,2.25,1.1,3.42s.64,2.32,1,3.46c.53,2.21,1.1,4.5,1.56,6.67.33,1.51.62,3,.92,4.41-.75-1.64-2.28-4.81-2.43-5.06-2.47-3.93-9.54-10-14.57-8.77a6.13,6.13,0,0,0-4,8.21c1.25,3.43,5.19,5.64,8.49,6.65,3.65,1.12,11.71.1,12.72,0,.48,2.41.93,4.75,1.32,7,.86,4.9,1.51,9.3,2,13h3.4c-.59-3.85-1.37-8.44-2.39-13.59-.48-2.45-1.05-5.05-1.65-7.72a68.82,68.82,0,0,0,7.09-3.34c2.66,2.87,9.46,6.24,10.34,6.67-.92,2.27-1.84,4.48-2.75,6.55-1.88,4.33-3.67,8.17-5.24,11.43h3.67c1.36-3,2.85-6.44,4.4-10.24.95-2.3,1.92-4.79,2.89-7.35,1,.2,9,1.82,12.68,1,3.38-.76,7.47-2.67,9-6a6.15,6.15,0,0,0-3.39-8.49c-4.92-1.65-12.42,3.93-15.17,7.66-.17.22-1.66,2.8-2.58,4.45.39-1,.79-2.06,1.18-3.15.78-2.14,1.5-4.29,2.28-6.61l1-3.44c.37-1.14.61-2.39.93-3.59.66-2.81,1.2-5.69,1.69-8.6,1.87.69,8.56,3,12,2.77s7.78-1.51,9.78-4.58a6.14,6.14,0,0,0-2.06-8.9c-4.61-2.38-12.88,2-16.16,5.27-.21.21-2.3,2.82-3.42,4.27.27-1.75.56-3.5.78-5.28.64-5.14,1.12-10.37,1.63-15.58.15-1.6.33-3.19.5-4.78.66.25,8.56,3.19,12.44,2.92,3.45-.24,7.78-1.51,9.78-4.58a6.14,6.14,0,0,0-2.07-8.9c-4.61-2.38-12.87,2-16.15,5.27-.25.25-3.26,4-4,5,.37-3.5.77-7,1.3-10.41a108.93,108.93,0,0,1,3-13.7c.31.12,8.54,3.22,12.52,2.94,3.45-.24,7.78-1.51,9.78-4.58a6.15,6.15,0,0,0-2.07-8.9c-4.61-2.38-12.87,2-16.16,5.27-.25.26-3.49,4.31-4,5.08.08-.26.13-.54.21-.79a79.58,79.58,0,0,1,5.42-13c1.18-2.31,2.44-4.45,3.71-6.5,1.47.73,8.24,4,11.85,4.16s7.9-.64,10.22-3.47a6.15,6.15,0,0,0-1.07-9.08c-4.32-2.87-13,.58-16.64,3.47-.2.16-2,2-3.33,3.32.58-.92,1.17-1.88,1.75-2.75,2.17-3.27,4.36-6.13,6.32-8.64,1.12-1.42,2.17-2.69,3.16-3.86,1.82,0,9.16-.25,12.37-1.76s6.71-4.21,7.47-7.8a6.13,6.13,0,0,0-5.13-7.55c-5.16-.56-11.29,6.51-13.17,10.74-.16.37-2.05,6.38-2,6.38h.11c-1,1.1-2,2.3-3.11,3.64-2,2.48-4.28,5.29-6.53,8.53A110.24,110.24,0,0,0,688,301.33a80.48,80.48,0,0,0-5.78,13c0,.05,0,.11,0,.17,0-1.52,0-5.77-.08-6.1-.59-4.59-4.44-13.12-9.55-14.06a6.14,6.14,0,0,0-7.08,5.77c-.29,3.65,2.35,7.3,4.93,9.61,2.91,2.6,11,5.11,11.63,5.31a108.3,108.3,0,0,0-3.41,14.1c-.49,2.77-.91,5.58-1.29,8.4,0-1.31,0-2.49-.06-2.65-.6-4.59-4.45-13.12-9.55-14.06a6.13,6.13,0,0,0-7.08,5.77c-.3,3.65,2.35,7.3,4.93,9.61s9.46,4.62,11.28,5.2c-.14,1.09-.28,2.17-.41,3.25-.62,5.21-1.22,10.41-2,15.49-.26,1.79-.59,3.54-.9,5.3,0-1.17,0-2.15-.07-2.3-.59-4.6-4.44-13.12-9.54-14.07a6.15,6.15,0,0,0-7.09,5.78c-.29,3.65,2.35,7.3,4.93,9.61s8.8,4.39,11,5.09c-.38,1.79-.76,3.58-1.2,5.3-.34,1.16-.57,2.31-1,3.46s-.74,2.28-1.1,3.41c-.78,2.14-1.57,4.36-2.39,6.43-.55,1.44-1.11,2.81-1.66,4.18.28-1.77.76-5.27.76-5.57A23.87,23.87,0,0,0,663,375.18a7.71,7.71,0,0,0-.09-1.36,6.14,6.14,0,0,0-7.51-5.21c-5,1.34-8.19,10.14-8.42,14.76,0,.28.16,3.25.3,5.13-.25-1.09-.48-2.15-.75-3.27-.53-2.22-1.12-4.41-1.75-6.78-.34-1.13-.68-2.28-1-3.43s-.81-2.33-1.22-3.51c-1-2.71-2.12-5.41-3.33-8.1,1.94-.47,8.81-2.22,11.57-4.33s5.65-5.55,5.63-9.22a6.14,6.14,0,0,0-6.63-6.28c-5.16.56-9.64,8.77-10.57,13.31-.06.28-.37,3.61-.5,5.45-.74-1.62-1.46-3.23-2.26-4.84-2.31-4.64-4.79-9.27-7.24-13.89-.75-1.42-1.48-2.84-2.22-4.26.69-.16,8.9-2.06,12-4.43,2.74-2.11,5.66-5.56,5.63-9.22a6.14,6.14,0,0,0-6.63-6.28c-5.16.56-9.63,8.77-10.57,13.31-.07.34-.5,5.14-.55,6.36-1.63-3.13-3.22-6.26-4.66-9.41a108.49,108.49,0,0,1-5.06-13.07c.32-.08,8.89-2,12.06-4.45,2.74-2.11,5.65-5.56,5.63-9.22a6.14,6.14,0,0,0-6.63-6.28c-5.16.56-9.64,8.77-10.57,13.31-.08.36-.54,5.51-.55,6.45-.09-.25-.2-.51-.27-.77a78.79,78.79,0,0,1-2.63-13.81c-.29-2.58-.42-5.06-.49-7.47,1.63-.2,9.09-1.19,12.18-3.06s6.23-4.9,6.6-8.54a6.14,6.14,0,0,0-5.89-7c-5.19,0-10.54,7.67-12,12.07-.08.24-.6,2.77-.95,4.61,0-1.09-.06-2.21-.05-3.26,0-3.92.25-7.51.5-10.69.15-1.81.33-3.44.51-5,1.5-1,7.5-5.27,9.34-8.3s3.28-7.22,1.93-10.62a6.13,6.13,0,0,0-8.45-3.47c-4.61,2.38-5.82,11.65-5.06,16.22.07.4,1.81,6.45,1.89,6.4l.09-.06c-.2,1.46-.4,3-.59,4.75-.31,3.18-.64,6.78-.73,10.72a111,111,0,0,0,.3,12.72,79.36,79.36,0,0,0,2.36,14c0,.05,0,.11.05.16-.82-1.28-3.22-4.79-3.43-5-3-3.5-10.95-8.49-15.72-6.46a6.14,6.14,0,0,0-2.72,8.72C595.59,316.55,599.81,318.13,603.24,318.63Z" style="fill: rgb(38, 50, 56); transform-origin: 658.869px 330.889px;" id="elyzso798ardm" class="animable"></path><path d="M692.19,294.26c.08.05,1.66-6.05,1.71-6.45.64-4.58-.82-13.82-5.49-16.08a6.13,6.13,0,0,0-8.35,3.7c-1.26,3.44.33,7.66,2.21,10.57C684.48,289.41,692.19,294.26,692.19,294.26Z" style="fill: rgb(38, 50, 56); transform-origin: 686.826px 282.725px;" id="elkb32s77nevg" class="animable"></path><polygon points="680.4 460.5 630.63 460.5 624.41 405.22 686.62 405.22 680.4 460.5" style="fill: rgb(255, 255, 255); stroke: rgb(38, 50, 56); stroke-linecap: round; stroke-linejoin: round; transform-origin: 655.515px 432.86px;" id="elwhew9ydl08e" class="animable"></polygon><polygon points="625.55 415.35 626.15 420.71 684.88 420.71 685.48 415.35 625.55 415.35" style="fill: rgb(38, 50, 56); transform-origin: 655.515px 418.03px;" id="elwxn5t709yn" class="animable"></polygon><polygon points="683.55 432.49 684.15 427.13 626.87 427.13 627.48 432.49 683.55 432.49" style="fill: rgb(38, 50, 56); transform-origin: 655.51px 429.81px;" id="elg6l53159g6m" class="animable"></polygon></g><g id="freepik--Device--inject-2" class="animable" style="transform-origin: 409.99px 298.68px;"><rect x="391.04" y="337.85" width="30.22" height="121.93" style="fill: rgb(38, 50, 56); stroke: rgb(38, 50, 56); stroke-linecap: round; stroke-linejoin: round; transform-origin: 406.15px 398.815px;" id="el4r7vtixr6rh" class="animable"></rect><rect x="223.12" y="136.72" width="381.42" height="231.35" style="fill: rgb(38, 50, 56); stroke: rgb(38, 50, 56); stroke-linecap: round; stroke-linejoin: round; transform-origin: 413.83px 252.395px;" id="el6kr4ystgc0k" class="animable"></rect><rect x="215.44" y="136.72" width="381.42" height="231.35" style="fill: rgb(119, 255, 192); stroke: rgb(38, 50, 56); stroke-linecap: round; stroke-linejoin: round; transform-origin: 406.15px 252.395px;" id="elho4n4y1ceoh" class="animable"></rect><rect x="229.18" y="145.05" width="353.93" height="214.68" style="fill: rgb(255, 255, 255); stroke: rgb(38, 50, 56); stroke-linecap: round; stroke-linejoin: round; transform-origin: 406.145px 252.39px;" id="elrusbbgi1woe" class="animable"></rect><rect x="229.18" y="346.81" width="353.93" height="12.93" style="fill: rgb(255, 255, 255); stroke: rgb(38, 50, 56); stroke-linecap: round; stroke-linejoin: round; transform-origin: 406.145px 353.275px;" id="elkox2i0hlk7n" class="animable"></rect><polygon points="407.8 446.1 295.75 453.34 295.75 460.64 516.55 460.64 516.55 453.34 407.8 446.1" style="fill: rgb(38, 50, 56); stroke: rgb(38, 50, 56); stroke-linecap: round; stroke-linejoin: round; transform-origin: 406.15px 453.37px;" id="eln5teeh8cwnl" class="animable"></polygon><rect x="229.18" y="145.05" width="353.93" height="214.68" style="fill: rgb(255, 255, 255); stroke: rgb(38, 50, 56); stroke-linecap: round; stroke-linejoin: round; transform-origin: 406.145px 252.39px;" id="elw06yk4xfdbq" class="animable"></rect><rect x="405.08" y="156.71" width="170.66" height="48.35" style="fill: rgb(255, 255, 255); stroke: rgb(38, 50, 56); stroke-linecap: round; stroke-linejoin: round; transform-origin: 490.41px 180.885px;" id="elwhxwnui8bx" class="animable"></rect><rect x="467.45" y="216.64" width="107.61" height="64.02" style="fill: rgb(255, 255, 255); stroke: rgb(38, 50, 56); stroke-linecap: round; stroke-linejoin: round; transform-origin: 521.255px 248.65px;" id="el5hz30glybgx" class="animable"></rect><polygon points="467.45 280.66 504.91 250.69 520.57 262.27 553.26 237.07 574.37 257.5 574.37 280.66 467.45 280.66" style="fill: rgb(38, 50, 56); stroke: rgb(38, 50, 56); stroke-linecap: round; stroke-linejoin: round; transform-origin: 520.91px 258.865px;" id="el0u057n8avb2" class="animable"></polygon><path d="M493.33,233a7.49,7.49,0,1,1-7.49-7.5A7.5,7.5,0,0,1,493.33,233Z" style="fill: rgb(38, 50, 56); stroke: rgb(38, 50, 56); stroke-linecap: round; stroke-linejoin: round; transform-origin: 485.84px 232.99px;" id="elcoy5fg3ulwa" class="animable"></path><rect x="467.45" y="289.51" width="107.61" height="64.02" style="fill: rgb(255, 255, 255); stroke: rgb(38, 50, 56); stroke-linecap: round; stroke-linejoin: round; transform-origin: 521.255px 321.52px;" id="elytuyj822m5o" class="animable"></rect><polygon points="467.45 353.53 504.91 323.56 520.57 335.14 553.26 309.94 574.37 330.38 574.37 353.53 467.45 353.53" style="fill: rgb(38, 50, 56); stroke: rgb(38, 50, 56); stroke-linecap: round; stroke-linejoin: round; transform-origin: 520.91px 331.735px;" id="elowt0b4g20o" class="animable"></polygon><path d="M493.33,305.86a7.49,7.49,0,1,1-7.49-7.49A7.5,7.5,0,0,1,493.33,305.86Z" style="fill: rgb(38, 50, 56); stroke: rgb(38, 50, 56); stroke-linecap: round; stroke-linejoin: round; transform-origin: 485.84px 305.86px;" id="ela4j99g2v9db" class="animable"></path><path d="M413.91,320.57l-4.19-25.72h3l2.76,18.48L418.93,295h2.54L425,313.43l2.7-18.58h2.93l-4.13,25.72h-2.61l-3.59-19.05-3.62,19.05Z" style="fill: rgb(38, 50, 56); transform-origin: 420.175px 307.71px;" id="elvg4taviuw3n" class="animable"></path><line x1="434.49" y1="296.41" x2="459.65" y2="296.41" style="fill: none; stroke: rgb(38, 50, 56); stroke-miterlimit: 10; transform-origin: 447.07px 296.41px;" id="elt2yxnmi5gw" class="animable"></line><line x1="434.49" y1="303.35" x2="459.65" y2="303.35" style="fill: none; stroke: rgb(38, 50, 56); stroke-miterlimit: 10; transform-origin: 447.07px 303.35px;" id="el7n7bi423js" class="animable"></line><line x1="434.49" y1="310.29" x2="459.65" y2="310.29" style="fill: none; stroke: rgb(38, 50, 56); stroke-miterlimit: 10; transform-origin: 447.07px 310.29px;" id="elf9bqhbgyk1o" class="animable"></line><line x1="434.49" y1="317.23" x2="459.65" y2="317.23" style="fill: none; stroke: rgb(38, 50, 56); stroke-miterlimit: 10; transform-origin: 447.07px 317.23px;" id="elzu0akicybd" class="animable"></line><line x1="434.49" y1="324.17" x2="459.65" y2="324.17" style="fill: none; stroke: rgb(38, 50, 56); stroke-miterlimit: 10; transform-origin: 447.07px 324.17px;" id="elliklmfiorhn" class="animable"></line><line x1="434.49" y1="331.11" x2="459.65" y2="331.11" style="fill: none; stroke: rgb(38, 50, 56); stroke-miterlimit: 10; transform-origin: 447.07px 331.11px;" id="elueca6gq9pyr" class="animable"></line><line x1="434.49" y1="338.05" x2="459.65" y2="338.05" style="fill: none; stroke: rgb(38, 50, 56); stroke-miterlimit: 10; transform-origin: 447.07px 338.05px;" id="el72jrrsg1j8d" class="animable"></line><line x1="434.49" y1="344.99" x2="459.65" y2="344.99" style="fill: none; stroke: rgb(38, 50, 56); stroke-miterlimit: 10; transform-origin: 447.07px 344.99px;" id="el1q1anqtk15z" class="animable"></line><line x1="434.49" y1="351.93" x2="459.65" y2="351.93" style="fill: none; stroke: rgb(38, 50, 56); stroke-miterlimit: 10; transform-origin: 447.07px 351.93px;" id="elu363omgd6b" class="animable"></line><path d="M419.47,217.66a34.55,34.55,0,0,0-19.3,5.86V145.05h-171V359.73h171V281.27a34.73,34.73,0,1,0,19.3-63.61Z" style="fill: rgb(38, 50, 56); stroke: rgb(38, 50, 56); stroke-linecap: round; stroke-linejoin: round; transform-origin: 341.68px 252.39px;" id="elx5ik5inbtlr" class="animable"></path><line x1="246.97" y1="177.82" x2="323.93" y2="177.82" style="fill: none; stroke: rgb(255, 255, 255); stroke-linecap: round; stroke-linejoin: round; stroke-width: 2px; transform-origin: 285.45px 177.82px;" id="el7wixpe222qw" class="animable"></line><line x1="246.97" y1="200.85" x2="287.15" y2="200.85" style="fill: none; stroke: rgb(255, 255, 255); stroke-linecap: round; stroke-linejoin: round; stroke-width: 2px; transform-origin: 267.06px 200.85px;" id="el9er2vkq7z3k" class="animable"></line><line x1="246.97" y1="188.18" x2="284.43" y2="188.18" style="fill: none; stroke: rgb(119, 255, 192); stroke-linecap: round; stroke-linejoin: round; stroke-width: 2px; transform-origin: 265.7px 188.18px;" id="eljwb0u6t28ob" class="animable"></line><line x1="292.6" y1="188.18" x2="312.35" y2="188.18" style="fill: none; stroke: rgb(119, 255, 192); stroke-linecap: round; stroke-linejoin: round; stroke-width: 2px; transform-origin: 302.475px 188.18px;" id="el0mznyqgkp17" class="animable"></line><line x1="323.93" y1="188.18" x2="343.68" y2="188.18" style="fill: none; stroke: rgb(119, 255, 192); stroke-linecap: round; stroke-linejoin: round; stroke-width: 2px; transform-origin: 333.805px 188.18px;" id="elfzblrbo0i7r" class="animable"></line><line x1="246.97" y1="210.64" x2="284.43" y2="210.64" style="fill: none; stroke: rgb(255, 255, 255); stroke-linecap: round; stroke-linejoin: round; stroke-width: 2px; transform-origin: 265.7px 210.64px;" id="el5arcp9o903" class="animable"></line><line x1="292.6" y1="210.64" x2="312.35" y2="210.64" style="fill: none; stroke: rgb(255, 255, 255); stroke-linecap: round; stroke-linejoin: round; stroke-width: 2px; transform-origin: 302.475px 210.64px;" id="elzi12gp7ev5" class="animable"></line><line x1="323.93" y1="210.64" x2="343.68" y2="210.64" style="fill: none; stroke: rgb(119, 255, 192); stroke-linecap: round; stroke-linejoin: round; stroke-width: 2px; transform-origin: 333.805px 210.64px;" id="el350u6692sdo" class="animable"></line><line x1="246.97" y1="233.09" x2="284.43" y2="233.09" style="fill: none; stroke: rgb(255, 255, 255); stroke-linecap: round; stroke-linejoin: round; stroke-width: 2px; transform-origin: 265.7px 233.09px;" id="eljzwc69fn6h" class="animable"></line><line x1="292.6" y1="233.09" x2="312.35" y2="233.09" style="fill: none; stroke: rgb(119, 255, 192); stroke-linecap: round; stroke-linejoin: round; stroke-width: 2px; transform-origin: 302.475px 233.09px;" id="ellzeyfrb2qm" class="animable"></line><line x1="323.93" y1="233.09" x2="343.68" y2="233.09" style="fill: none; stroke: rgb(255, 255, 255); stroke-linecap: round; stroke-linejoin: round; stroke-width: 2px; transform-origin: 333.805px 233.09px;" id="elrlwfkwdblgs" class="animable"></line><line x1="270.12" y1="242.88" x2="298.61" y2="242.88" style="fill: none; stroke: rgb(255, 255, 255); stroke-linecap: round; stroke-linejoin: round; stroke-width: 2px; transform-origin: 284.365px 242.88px;" id="elelmuzh7cdu" class="animable"></line><line x1="304.83" y1="242.88" x2="319.85" y2="242.88" style="fill: none; stroke: rgb(255, 255, 255); stroke-linecap: round; stroke-linejoin: round; stroke-width: 2px; transform-origin: 312.34px 242.88px;" id="elh3jk4l8lb7s" class="animable"></line><line x1="328.65" y1="242.88" x2="343.68" y2="242.88" style="fill: none; stroke: rgb(255, 255, 255); stroke-linecap: round; stroke-linejoin: round; stroke-width: 2px; transform-origin: 336.165px 242.88px;" id="eleetvhd0eu9" class="animable"></line><line x1="270.12" y1="254.97" x2="298.61" y2="254.97" style="fill: none; stroke: rgb(255, 255, 255); stroke-linecap: round; stroke-linejoin: round; stroke-width: 2px; transform-origin: 284.365px 254.97px;" id="elnszi826dfr" class="animable"></line><line x1="304.83" y1="254.97" x2="319.85" y2="254.97" style="fill: none; stroke: rgb(255, 255, 255); stroke-linecap: round; stroke-linejoin: round; stroke-width: 2px; transform-origin: 312.34px 254.97px;" id="ellk7av5buc5" class="animable"></line><line x1="328.65" y1="254.97" x2="343.68" y2="254.97" style="fill: none; stroke: rgb(255, 255, 255); stroke-linecap: round; stroke-linejoin: round; stroke-width: 2px; transform-origin: 336.165px 254.97px;" id="elwjgy5206fp" class="animable"></line><line x1="246.97" y1="268.21" x2="323.93" y2="268.21" style="fill: none; stroke: rgb(119, 255, 192); stroke-linecap: round; stroke-linejoin: round; stroke-width: 2px; transform-origin: 285.45px 268.21px;" id="el5zn92y4blwx" class="animable"></line><line x1="246.97" y1="291.24" x2="287.15" y2="291.24" style="fill: none; stroke: rgb(255, 255, 255); stroke-linecap: round; stroke-linejoin: round; stroke-width: 2px; transform-origin: 267.06px 291.24px;" id="el8y3v80wjd52" class="animable"></line><line x1="246.97" y1="278.57" x2="284.43" y2="278.57" style="fill: none; stroke: rgb(119, 255, 192); stroke-linecap: round; stroke-linejoin: round; stroke-width: 2px; transform-origin: 265.7px 278.57px;" id="elrdx9pztch2" class="animable"></line><line x1="292.6" y1="278.57" x2="312.35" y2="278.57" style="fill: none; stroke: rgb(255, 255, 255); stroke-linecap: round; stroke-linejoin: round; stroke-width: 2px; transform-origin: 302.475px 278.57px;" id="el1t57eupkud7" class="animable"></line><line x1="323.93" y1="278.57" x2="343.68" y2="278.57" style="fill: none; stroke: rgb(119, 255, 192); stroke-linecap: round; stroke-linejoin: round; stroke-width: 2px; transform-origin: 333.805px 278.57px;" id="elb6wm1g2v76l" class="animable"></line><line x1="246.97" y1="301.03" x2="284.43" y2="301.03" style="fill: none; stroke: rgb(119, 255, 192); stroke-linecap: round; stroke-linejoin: round; stroke-width: 2px; transform-origin: 265.7px 301.03px;" id="el3yhyda8kg3u" class="animable"></line><line x1="292.6" y1="301.03" x2="312.35" y2="301.03" style="fill: none; stroke: rgb(119, 255, 192); stroke-linecap: round; stroke-linejoin: round; stroke-width: 2px; transform-origin: 302.475px 301.03px;" id="el3nnli2rc8rs" class="animable"></line><line x1="323.93" y1="301.03" x2="343.68" y2="301.03" style="fill: none; stroke: rgb(255, 255, 255); stroke-linecap: round; stroke-linejoin: round; stroke-width: 2px; transform-origin: 333.805px 301.03px;" id="elm6596zn7kji" class="animable"></line><line x1="246.97" y1="323.48" x2="284.43" y2="323.48" style="fill: none; stroke: rgb(255, 255, 255); stroke-linecap: round; stroke-linejoin: round; stroke-width: 2px; transform-origin: 265.7px 323.48px;" id="el7rr39dhuo5" class="animable"></line><line x1="292.6" y1="323.48" x2="312.35" y2="323.48" style="fill: none; stroke: rgb(119, 255, 192); stroke-linecap: round; stroke-linejoin: round; stroke-width: 2px; transform-origin: 302.475px 323.48px;" id="elmgqc6r6y8ob" class="animable"></line><line x1="323.93" y1="323.48" x2="343.68" y2="323.48" style="fill: none; stroke: rgb(119, 255, 192); stroke-linecap: round; stroke-linejoin: round; stroke-width: 2px; transform-origin: 333.805px 323.48px;" id="elp7cab3gmg2p" class="animable"></line><line x1="270.12" y1="333.27" x2="298.61" y2="333.27" style="fill: none; stroke: rgb(255, 255, 255); stroke-linecap: round; stroke-linejoin: round; stroke-width: 2px; transform-origin: 284.365px 333.27px;" id="elrdgd1wlaoo" class="animable"></line><line x1="304.83" y1="333.27" x2="319.85" y2="333.27" style="fill: none; stroke: rgb(255, 255, 255); stroke-linecap: round; stroke-linejoin: round; stroke-width: 2px; transform-origin: 312.34px 333.27px;" id="el67g5alcwqp5" class="animable"></line><line x1="328.65" y1="333.27" x2="343.68" y2="333.27" style="fill: none; stroke: rgb(255, 255, 255); stroke-linecap: round; stroke-linejoin: round; stroke-width: 2px; transform-origin: 336.165px 333.27px;" id="elrhiwupsbh0n" class="animable"></line><line x1="270.12" y1="345.36" x2="298.61" y2="345.36" style="fill: none; stroke: rgb(255, 255, 255); stroke-linecap: round; stroke-linejoin: round; stroke-width: 2px; transform-origin: 284.365px 345.36px;" id="eldyxp2ckpfj" class="animable"></line><line x1="304.83" y1="345.36" x2="319.85" y2="345.36" style="fill: none; stroke: rgb(255, 255, 255); stroke-linecap: round; stroke-linejoin: round; stroke-width: 2px; transform-origin: 312.34px 345.36px;" id="el8150k9g5hbf" class="animable"></line><line x1="328.65" y1="345.36" x2="343.68" y2="345.36" style="fill: none; stroke: rgb(255, 255, 255); stroke-linecap: round; stroke-linejoin: round; stroke-width: 2px; transform-origin: 336.165px 345.36px;" id="elpkbu22xjnf8" class="animable"></line><path d="M249.07,164l7.23-3.73v1.08l-6.09,3.06v0l6.09,3.05v1.08l-7.23-3.73Z" style="fill: rgb(255, 255, 255); stroke: rgb(255, 255, 255); stroke-miterlimit: 10; transform-origin: 252.685px 164.405px;" id="elkj1dw9ofp0t" class="animable"></path><path d="M260.63,169.2,265,157.9H266l-4.36,11.3Z" style="fill: rgb(255, 255, 255); stroke: rgb(255, 255, 255); stroke-miterlimit: 10; transform-origin: 263.315px 163.55px;" id="elrb816nm2et8" class="animable"></path><path d="M277.57,164.87l-7.23,3.71V167.5l6.14-3.05v0l-6.14-3.06v-1.08l7.23,3.71Z" style="fill: rgb(255, 255, 255); stroke: rgb(255, 255, 255); stroke-miterlimit: 10; transform-origin: 273.955px 164.445px;" id="elef1aj4dfho" class="animable"></path></g><g id="freepik--Gears--inject-2" class="animable" style="transform-origin: 382.24px 84.465px;"><line x1="352.72" y1="95.81" x2="322.37" y2="141.83" style="fill: none; stroke: rgb(38, 50, 56); stroke-miterlimit: 10; stroke-dasharray: 5; transform-origin: 337.545px 118.82px;" id="elfa1kyyo4zb" class="animable"></line><path d="M401,71.27V60.82L390.6,59.66A25.39,25.39,0,0,0,388,53.44l6.59-8.25-7.39-7.39L379,44.37a25,25,0,0,0-6.2-2.6l-1.17-10.49H361.21l-1.16,10.44a25,25,0,0,0-6.22,2.56l-8.24-6.59-7.39,7.39,6.56,8.21a25,25,0,0,0-2.6,6.2l-10.48,1.17V71.11l10.43,1.16a25.39,25.39,0,0,0,2.56,6.22l-6.59,8.24,7.39,7.39,8.21-6.56a25,25,0,0,0,6.2,2.6l1.17,10.48H371.5l1.16-10.43a25.39,25.39,0,0,0,6.22-2.56l8.24,6.59,7.39-7.39L388,78.64a25,25,0,0,0,2.6-6.2Zm-34.68,7.17A12.48,12.48,0,1,1,378.83,66,12.48,12.48,0,0,1,366.35,78.44Z" style="fill: rgb(119, 255, 192); stroke: rgb(38, 50, 56); stroke-linecap: round; stroke-linejoin: round; transform-origin: 366.34px 65.96px;" id="el9yrd2inomqm" class="animable"></path><path d="M442.11,50.29,441,43.37l-7,.39a16.52,16.52,0,0,0-2.38-3.83L435,33.74l-5.71-4.08-4.71,5.26a16.34,16.34,0,0,0-4.39-1l-1.94-6.82-6.92,1.16.39,7a16.79,16.79,0,0,0-3.84,2.38l-6.18-3.45-4.08,5.71,5.26,4.71a16.34,16.34,0,0,0-1,4.39L395,51l1.16,6.92,7-.39a16.79,16.79,0,0,0,2.38,3.84l-3.45,6.18,5.71,4.08,4.71-5.26a16.34,16.34,0,0,0,4.39,1l1.94,6.82L425.81,73l-.39-7a16.52,16.52,0,0,0,3.83-2.38L435.44,67l4.08-5.71-5.26-4.71a16.34,16.34,0,0,0,1-4.39Zm-22.17,8.59a8.37,8.37,0,1,1,6.88-9.64A8.38,8.38,0,0,1,419.94,58.88Z" style="fill: rgb(38, 50, 56); stroke: rgb(38, 50, 56); stroke-miterlimit: 10; transform-origin: 418.555px 50.645px;" id="eldnpv0msdyqs" class="animable"></path></g><g id="freepik--Chart--inject-2" class="animable" style="transform-origin: 252.125px 84.125px;"><line x1="263.56" y1="96.29" x2="264.05" y2="98.75" style="fill: none; stroke: rgb(38, 50, 56); stroke-miterlimit: 10; transform-origin: 263.805px 97.52px;" id="el8w23ggz2p56" class="animable"></line><line x1="264.97" y1="103.36" x2="271.84" y2="137.94" style="fill: none; stroke: rgb(38, 50, 56); stroke-miterlimit: 10; stroke-dasharray: 4.70113, 4.70113; transform-origin: 268.405px 120.65px;" id="elhpvzg0ecfuk" class="animable"></line><line x1="272.3" y1="140.24" x2="272.79" y2="142.7" style="fill: none; stroke: rgb(38, 50, 56); stroke-miterlimit: 10; transform-origin: 272.545px 141.47px;" id="elj05b6xnmvok" class="animable"></line><g id="elywlqtbr9nsf"><rect x="270.6" y="39.43" width="14.12" height="52.57" style="fill: rgb(119, 255, 192); stroke: rgb(38, 50, 56); stroke-linecap: round; stroke-linejoin: round; transform-origin: 277.66px 65.715px; transform: rotate(180deg);" class="animable"></rect></g><g id="eldlns6bkgbn"><rect x="251.77" y="51.2" width="14.12" height="40.8" style="fill: rgb(38, 50, 56); stroke: rgb(38, 50, 56); stroke-miterlimit: 10; transform-origin: 258.83px 71.6px; transform: rotate(180deg);" class="animable"></rect></g><g id="elktur3cl7e28"><rect x="232.94" y="60.62" width="14.12" height="31.38" style="fill: rgb(119, 255, 192); stroke: rgb(38, 50, 56); stroke-linecap: round; stroke-linejoin: round; transform-origin: 240px 76.31px; transform: rotate(180deg);" class="animable"></rect></g><g id="el2qp51uhh3zj"><rect x="214.12" y="68.46" width="14.12" height="23.54" style="fill: rgb(38, 50, 56); stroke: rgb(38, 50, 56); stroke-miterlimit: 10; transform-origin: 221.18px 80.23px; transform: rotate(180deg);" class="animable"></rect></g><polygon points="220.72 64.99 219.34 63.18 233.78 52.19 240.94 54.58 252.76 41.85 259.71 43.97 272.32 29.52 277.66 32.97 283.2 29.05 284.52 30.91 277.72 35.72 272.74 32.5 260.46 46.57 253.46 44.44 241.61 57.2 234.2 54.73 220.72 64.99" style="fill: rgb(38, 50, 56); transform-origin: 251.93px 47.02px;" id="elg4efs3tljig" class="animable"></polygon><polygon points="285.67 35.23 290.13 25.55 279.51 26.53 285.67 35.23" style="fill: rgb(38, 50, 56); transform-origin: 284.82px 30.39px;" id="el87l957arddo" class="animable"></polygon></g><g id="freepik--Search--inject-2" class="animable" style="transform-origin: 147.608px 97.865px;"><line x1="152.87" y1="94.43" x2="154.95" y2="95.81" style="fill: none; stroke: rgb(38, 50, 56); stroke-miterlimit: 10; transform-origin: 153.91px 95.12px;" id="el690ds6wu0d3" class="animable"></line><line x1="159.13" y1="98.57" x2="223.94" y2="141.42" style="fill: none; stroke: rgb(38, 50, 56); stroke-miterlimit: 10; stroke-dasharray: 5.01227, 5.01227; transform-origin: 191.535px 119.995px;" id="elupzntfjqxyd" class="animable"></line><line x1="226.03" y1="142.8" x2="228.11" y2="144.18" style="fill: none; stroke: rgb(38, 50, 56); stroke-miterlimit: 10; transform-origin: 227.07px 143.49px;" id="el26stkvrhxh1" class="animable"></line><path d="M85.5,51.55h72.6a6.38,6.38,0,0,1,6.38,6.38v49.65a0,0,0,0,1,0,0H79.13a0,0,0,0,1,0,0V57.92A6.38,6.38,0,0,1,85.5,51.55Z" style="fill: rgb(255, 255, 255); stroke: rgb(38, 50, 56); stroke-linecap: round; stroke-linejoin: round; transform-origin: 121.805px 79.565px;" id="el6elcgi045tw" class="animable"></path><line x1="100.66" y1="74.06" x2="141.09" y2="74.06" style="fill: none; stroke: rgb(38, 50, 56); stroke-linecap: round; stroke-linejoin: round; transform-origin: 120.875px 74.06px;" id="ellbv3r0qf57" class="animable"></line><line x1="100.66" y1="80.59" x2="141.09" y2="80.59" style="fill: none; stroke: rgb(38, 50, 56); stroke-linecap: round; stroke-linejoin: round; transform-origin: 120.875px 80.59px;" id="elf368qhc4ao" class="animable"></line><line x1="100.66" y1="87.11" x2="141.09" y2="87.11" style="fill: none; stroke: rgb(38, 50, 56); stroke-linecap: round; stroke-linejoin: round; transform-origin: 120.875px 87.11px;" id="elo1zf3o27dui" class="animable"></line><line x1="100.66" y1="93.63" x2="141.09" y2="93.63" style="fill: none; stroke: rgb(38, 50, 56); stroke-linecap: round; stroke-linejoin: round; transform-origin: 120.875px 93.63px;" id="el60yipuva0do" class="animable"></line><path d="M164.48,60.39V56.77a5.22,5.22,0,0,0-5.22-5.22H84.34a5.21,5.21,0,0,0-5.21,5.22v3.62Z" style="fill: rgb(119, 255, 192); stroke: rgb(38, 50, 56); stroke-linecap: round; stroke-linejoin: round; transform-origin: 121.805px 55.97px;" id="el1tr1f503xpg" class="animable"></path><path d="M149.88,56.2a1.32,1.32,0,1,0-1.31,1.32A1.32,1.32,0,0,0,149.88,56.2Z" style="fill: rgb(38, 50, 56); stroke: rgb(38, 50, 56); stroke-linecap: round; stroke-linejoin: round; transform-origin: 148.56px 56.2px;" id="ela0ceegdbk5d" class="animable"></path><path d="M155.15,56.2a1.32,1.32,0,1,0-1.32,1.32A1.32,1.32,0,0,0,155.15,56.2Z" style="fill: rgb(38, 50, 56); stroke: rgb(38, 50, 56); stroke-linecap: round; stroke-linejoin: round; transform-origin: 153.83px 56.2px;" id="elh456oaadcrw" class="animable"></path><path d="M160.42,56.2a1.32,1.32,0,1,0-1.32,1.32A1.32,1.32,0,0,0,160.42,56.2Z" style="fill: rgb(38, 50, 56); stroke: rgb(38, 50, 56); stroke-linecap: round; stroke-linejoin: round; transform-origin: 159.1px 56.2px;" id="el7i4s2imvkvi" class="animable"></path><path d="M68.3,119.49h0a3.31,3.31,0,0,1-.38-4.72l24-27.51,3.66,3L73,119A3.3,3.3,0,0,1,68.3,119.49Z" style="fill: rgb(38, 50, 56); stroke: rgb(38, 50, 56); stroke-linejoin: round; transform-origin: 81.3428px 103.757px;" id="el1fin5rwkhev" class="animable"></path><path d="M85.52,94.58l-17.6,20.19A3.3,3.3,0,1,0,73,119L89.65,97.82Z" style="fill: rgb(255, 255, 255); stroke: rgb(38, 50, 56); stroke-linejoin: round; transform-origin: 78.4024px 107.385px;" id="elgt131oj7h7" class="animable"></path><path d="M111.89,66.85a15.12,15.12,0,1,0,2,21.29A15.12,15.12,0,0,0,111.89,66.85ZM94,88.46a12.94,12.94,0,1,1,18.22-1.71A12.94,12.94,0,0,1,94,88.46Z" style="fill: rgb(38, 50, 56); stroke: rgb(38, 50, 56); stroke-linejoin: round; transform-origin: 102.246px 78.4949px;" id="elw8q7cj2fn2s" class="animable"></path></g><g id="freepik--Outline--inject-2" class="animable" style="transform-origin: 139.08px 212.555px;"><line x1="123.01" y1="213.21" x2="125.51" y2="213.21" style="fill: none; stroke: rgb(38, 50, 56); stroke-miterlimit: 10; transform-origin: 124.26px 213.21px;" id="elk79piin4rt" class="animable"></line><line x1="130.53" y1="213.21" x2="218.2" y2="213.21" style="fill: none; stroke: rgb(38, 50, 56); stroke-miterlimit: 10; stroke-dasharray: 5.01025, 5.01025; transform-origin: 174.365px 213.21px;" id="el0nh3llx034a" class="animable"></line><line x1="220.71" y1="213.21" x2="223.21" y2="213.21" style="fill: none; stroke: rgb(38, 50, 56); stroke-miterlimit: 10; transform-origin: 221.96px 213.21px;" id="ell5zqulct1yd" class="animable"></line><line x1="81.88" y1="176" x2="138.41" y2="176" style="fill: none; stroke: rgb(38, 50, 56); stroke-linecap: round; stroke-linejoin: round; transform-origin: 110.145px 176px;" id="elhulo3efeu1t" class="animable"></line><line x1="110.15" y1="203.85" x2="110.15" y2="176" style="fill: none; stroke: rgb(38, 50, 56); stroke-linecap: round; stroke-linejoin: round; transform-origin: 110.15px 189.925px;" id="elw3llzec5g1" class="animable"></line><line x1="65.35" y1="182.93" x2="65.35" y2="218.16" style="fill: none; stroke: rgb(38, 50, 56); stroke-linecap: round; stroke-linejoin: round; transform-origin: 65.35px 200.545px;" id="el1fo21d56qzgh" class="animable"></line><polyline points="119.75 221.86 170.94 221.86 170.94 252.82" style="fill: none; stroke: rgb(38, 50, 56); stroke-linecap: round; stroke-linejoin: round; transform-origin: 145.345px 237.34px;" id="elmptwpiu3wub" class="animable"></polyline><line x1="138.41" y1="222.39" x2="138.41" y2="252.26" style="fill: none; stroke: rgb(38, 50, 56); stroke-linecap: round; stroke-linejoin: round; transform-origin: 138.41px 237.325px;" id="elxcko62gf3wg" class="animable"></line><rect x="55.21" y="164.26" width="36.8" height="25.07" style="fill: rgb(38, 50, 56); stroke: rgb(38, 50, 56); stroke-miterlimit: 10; transform-origin: 73.61px 176.795px;" id="ely9f59wvyp0i" class="animable"></rect><rect x="124.81" y="164.26" width="36.8" height="25.07" style="fill: rgb(119, 255, 192); stroke: rgb(38, 50, 56); stroke-linecap: round; stroke-linejoin: round; transform-origin: 143.21px 176.795px;" id="elx0sv3go3q" class="animable"></rect><rect x="126.94" y="244.79" width="23.58" height="16.06" style="fill: rgb(119, 255, 192); stroke: rgb(38, 50, 56); stroke-linecap: round; stroke-linejoin: round; transform-origin: 138.73px 252.82px;" id="elzd6tmtj7c9" class="animable"></rect><rect x="54.95" y="210.13" width="23.58" height="16.06" style="fill: rgb(255, 255, 255); stroke: rgb(38, 50, 56); stroke-linecap: round; stroke-linejoin: round; transform-origin: 66.74px 218.16px;" id="elvxog3w7z47l" class="animable"></rect><rect x="157.88" y="244.79" width="23.58" height="16.06" style="fill: rgb(38, 50, 56); stroke: rgb(38, 50, 56); stroke-miterlimit: 10; transform-origin: 169.67px 252.82px;" id="ellg2guseckw" class="animable"></rect><g id="el1ae9iaqrc5t"><rect x="97.03" y="209.28" width="26.23" height="26.23" style="fill: rgb(119, 255, 192); stroke: rgb(38, 50, 56); stroke-linecap: round; stroke-linejoin: round; transform-origin: 110.145px 222.395px; transform: rotate(-45deg);" class="animable"></rect></g></g><g id="freepik--Design--inject-2" class="animable animator-active" style="transform-origin: 142.93px 369.995px;"><line x1="178.36" y1="331.99" x2="180.73" y2="331.18" style="fill: none; stroke: rgb(38, 50, 56); stroke-miterlimit: 10; transform-origin: 179.545px 331.585px;" id="elib4ih6xvl8e" class="animable"></line><line x1="185.48" y1="329.56" x2="221.08" y2="317.41" style="fill: none; stroke: rgb(38, 50, 56); stroke-miterlimit: 10; stroke-dasharray: 5.0161, 5.0161; transform-origin: 203.28px 323.485px;" id="elyh7o7qqk6g" class="animable"></line><line x1="223.45" y1="316.6" x2="225.82" y2="315.79" style="fill: none; stroke: rgb(38, 50, 56); stroke-miterlimit: 10; transform-origin: 224.635px 316.195px;" id="el4f9ihdjddkw" class="animable"></line><rect x="60.04" y="316.44" width="112.71" height="26.47" style="fill: rgb(255, 255, 255); stroke: rgb(38, 50, 56); stroke-linecap: round; stroke-linejoin: round; transform-origin: 116.395px 329.675px;" id="el3e3m9m47r23" class="animable"></rect><rect x="113.46" y="349.25" width="58.91" height="35.05" style="fill: rgb(255, 255, 255); stroke: rgb(38, 50, 56); stroke-linecap: round; stroke-linejoin: round; transform-origin: 142.915px 366.775px;" id="elrf88tb4pb2e" class="animable"></rect><polygon points="113.46 384.3 133.97 367.9 142.54 374.24 160.44 360.44 172 371.63 172 384.3 113.46 384.3" style="fill: rgb(38, 50, 56); stroke: rgb(38, 50, 56); stroke-linecap: round; stroke-linejoin: round; transform-origin: 142.73px 372.37px;" id="el1yr7skz5pab" class="animable"></polygon><circle cx="123.53" cy="358.2" r="4.1" style="fill: rgb(38, 50, 56); stroke: rgb(38, 50, 56); stroke-linecap: round; stroke-linejoin: round; transform-origin: 123.53px 358.2px;" id="el30r1jaw4pgd" class="animable"></circle><rect x="113.46" y="389.15" width="58.91" height="35.05" style="fill: rgb(255, 255, 255); stroke: rgb(38, 50, 56); stroke-linecap: round; stroke-linejoin: round; transform-origin: 142.915px 406.675px;" id="elqnx3o534evo" class="animable"></rect><polygon points="113.46 424.2 133.97 407.79 142.54 414.13 160.44 400.33 172 411.52 172 424.2 113.46 424.2" style="fill: rgb(38, 50, 56); stroke: rgb(38, 50, 56); stroke-linecap: round; stroke-linejoin: round; transform-origin: 142.73px 412.265px;" id="elz80mrfbp8mk" class="animable"></polygon><circle cx="123.53" cy="398.1" r="4.1" style="fill: rgb(38, 50, 56); stroke: rgb(38, 50, 56); stroke-linecap: round; stroke-linejoin: round; transform-origin: 123.53px 398.1px;" id="elhfhf2313eyo" class="animable"></circle><line x1="61.75" y1="351.89" x2="106.53" y2="351.89" style="fill: none; stroke: rgb(38, 50, 56); stroke-miterlimit: 10; transform-origin: 84.14px 351.89px;" id="eltvgri7m3l7k" class="animable"></line><line x1="61.75" y1="361.84" x2="106.53" y2="361.84" style="fill: none; stroke: rgb(38, 50, 56); stroke-miterlimit: 10; transform-origin: 84.14px 361.84px;" id="el3fo94cwdt9y" class="animable"></line><line x1="61.75" y1="371.79" x2="106.53" y2="371.79" style="fill: none; stroke: rgb(38, 50, 56); stroke-miterlimit: 10; transform-origin: 84.14px 371.79px;" id="elfta2ogxe1u9" class="animable"></line><line x1="61.75" y1="381.74" x2="106.53" y2="381.74" style="fill: none; stroke: rgb(38, 50, 56); stroke-miterlimit: 10; transform-origin: 84.14px 381.74px;" id="el19wx6up6pm9" class="animable"></line><line x1="61.75" y1="391.69" x2="106.53" y2="391.69" style="fill: none; stroke: rgb(38, 50, 56); stroke-miterlimit: 10; transform-origin: 84.14px 391.69px;" id="el7armcoxazd3" class="animable"></line><line x1="61.75" y1="401.64" x2="106.53" y2="401.64" style="fill: none; stroke: rgb(38, 50, 56); stroke-miterlimit: 10; transform-origin: 84.14px 401.64px;" id="elgsbxtuxddwb" class="animable"></line><line x1="61.75" y1="411.59" x2="106.53" y2="411.59" style="fill: none; stroke: rgb(38, 50, 56); stroke-miterlimit: 10; transform-origin: 84.14px 411.59px;" id="el25vba7s4yau" class="animable"></line><line x1="61.75" y1="421.54" x2="106.53" y2="421.54" style="fill: none; stroke: rgb(38, 50, 56); stroke-miterlimit: 10; transform-origin: 84.14px 421.54px;" id="elo5e0z5wjxm" class="animable"></line></g><g id="freepik--Table--inject-2" class="animable" style="transform-origin: 386.99px 460.64px;"><line x1="85.96" y1="460.64" x2="720.99" y2="460.64" style="fill: none; stroke: rgb(38, 50, 56); stroke-miterlimit: 10; transform-origin: 403.475px 460.64px;" id="el304zlvvrt4u" class="animable"></line><line x1="52.99" y1="460.64" x2="70.08" y2="460.64" style="fill: none; stroke: rgb(38, 50, 56); stroke-miterlimit: 10; transform-origin: 61.535px 460.64px;" id="elln3r2hqd24" class="animable"></line></g><defs>     <filter id="active" height="200%">         <feMorphology in="SourceAlpha" result="DILATED" operator="dilate" radius="2"></feMorphology>                <feFlood flood-color="#32DFEC" flood-opacity="1" result="PINK"></feFlood>        <feComposite in="PINK" in2="DILATED" operator="in" result="OUTLINE"></feComposite>        <feMerge>            <feMergeNode in="OUTLINE"></feMergeNode>            <feMergeNode in="SourceGraphic"></feMergeNode>        </feMerge>    </filter>    <filter id="hover" height="200%">        <feMorphology in="SourceAlpha" result="DILATED" operator="dilate" radius="2"></feMorphology>                <feFlood flood-color="#ff0000" flood-opacity="0.5" result="PINK"></feFlood>        <feComposite in="PINK" in2="DILATED" operator="in" result="OUTLINE"></feComposite>        <feMerge>            <feMergeNode in="OUTLINE"></feMergeNode>            <feMergeNode in="SourceGraphic"></feMergeNode>        </feMerge>            <feColorMatrix type="matrix" values="0   0   0   0   0                0   1   0   0   0                0   0   0   0   0                0   0   0   1   0 "></feColorMatrix>    </filter></defs></svg>